<svg width="298" height="74" viewBox="0 0 298 74" fill="none" xmlns="http://www.w3.org/2000/svg">
<path d="M212 37C212 53.5686 198.569 67 182 67C165.431 67 152 53.5686 152 37C152 20.4315 165.431 7.00002 182 7.00002C198.569 7.00002 212 20.4315 212 37Z" fill="#EB0D16"/>
<path d="M92.3756 16C97.7642 6.66668 111.236 6.66669 116.624 16L133.512 45.25C138.9 54.5834 132.165 66.25 121.387 66.25H87.6124C76.8352 66.25 70.0995 54.5834 75.4881 45.25L92.3756 16Z" fill="#FFD931"/>
<path d="M233.899 46.669C228.432 41.2017 228.432 32.3374 233.899 26.8701L250.87 9.89949C256.337 4.43215 265.202 4.43215 270.669 9.89949L287.64 26.8701C293.107 32.3374 293.107 41.2017 287.64 46.669L270.669 63.6396C265.202 69.1069 256.337 69.1069 250.87 63.6396L233.899 46.669Z" fill="#00C932"/>
<path d="M0 23C0 15.268 6.26801 9.00002 14 9.00002H42C49.732 9.00002 56 15.268 56 23V51C56 58.732 49.732 65 42 65H14C6.26801 65 0 58.732 0 51V23Z" fill="#0760FF"/>
</svg>
